# xmcd
#
# Track frame offsets: 
#        150
#        15705
#        29092
#        46079
#        58454
#        74585
#        86738
#        100976
#        113883
#        134336
#
# Disc length: 2011 seconds
#
# Revision: 1
# Processed by: cddbd v1.5.2PL0 Copyright (c) Steve Scherf et al.
# Submitted via: ExactAudioCopyFreeDBPlugin 1.0
#
DISCID=9307d90a
DTITLE=Home Free - Full of Cheer
DYEAR=2014
DGENRE=A cappella
TTITLE0=Grandma Got Run Over by a Reindeer
TTITLE1=White Christmas
TTITLE2=O Holy Night
TTITLE3=Full of Cheer
TTITLE4=I'll Be Home for Christmas
TTITLE5=Baby, It's Cold Outside (featuring Kira Isabella)
TTITLE6=Hairy Christmas
TTITLE7=Angels We have Heard on High
TTITLE8=Do You Hear What I Hear?
TTITLE9=Silent Night (featuring Taylor Davis)
EXTD=
EXTT0=
EXTT1=
EXTT2=
EXTT3=
EXTT4=
EXTT5=
EXTT6=
EXTT7=
EXTT8=
EXTT9=
PLAYORDER=
